<mxfile host="app.diagrams.net" agent="Mozilla/5.0 (X11; Linux x86_64) AppleWebKit/537.36 (KHTML, like Gecko) Chrome/132.0.0.0 Safari/537.36" version="26.0.10">
  <diagram id="flowchart" name="DevOps Workflow">
    <mxGraphModel dx="241264" dy="146913" grid="1" gridSize="10" guides="1" tooltips="1" connect="1" arrows="1" fold="1" page="1" pageScale="1" pageWidth="827" pageHeight="1169" math="0" shadow="0">
      <root>
        <mxCell id="0" />
        <mxCell id="1" parent="0" />
        <mxCell id="fa4SZypfqjcJdwJo01G1-1" style="edgeStyle=orthogonalEdgeStyle;rounded=0;orthogonalLoop=1;jettySize=auto;html=1;entryX=0.5;entryY=0;entryDx=0;entryDy=0;" edge="1" parent="1" source="devs" target="gitlab">
          <mxGeometry relative="1" as="geometry" />
        </mxCell>
        <mxCell id="devs" value="Developers" style="rounded=1;fillColor=#ADD8E6" parent="1" vertex="1">
          <mxGeometry x="50" y="-30" width="120" height="60" as="geometry" />
        </mxCell>
        <mxCell id="fa4SZypfqjcJdwJo01G1-6" style="edgeStyle=orthogonalEdgeStyle;rounded=0;orthogonalLoop=1;jettySize=auto;html=1;exitX=0.5;exitY=1;exitDx=0;exitDy=0;entryX=0.5;entryY=0;entryDx=0;entryDy=0;" edge="1" parent="1" source="gitlab" target="fa4SZypfqjcJdwJo01G1-4">
          <mxGeometry relative="1" as="geometry" />
        </mxCell>
        <mxCell id="gitlab" value="GitLabÂ &#xa;10.66.10.46" style="rounded=1;fillColor=#FFA07A" parent="1" vertex="1">
          <mxGeometry x="5" y="50" width="210" height="80" as="geometry" />
        </mxCell>
        <mxCell id="edge1" parent="1" source="devs" target="gitlab" edge="1" />
        <mxCell id="edge2" parent="1" source="gitlab" target="weblogic" edge="1" />
        <mxCell id="edge3" parent="1" source="weblogic" target="prometheus" edge="1" />
        <mxCell id="edge4" parent="1" source="prometheus" target="grafana" edge="1" />
        <mxCell id="edge5" parent="1" source="grafana" target="oracle_db" edge="1" />
        <mxCell id="fa4SZypfqjcJdwJo01G1-4" value="10.66.10.47" style="rounded=1;fillColor=#FFA07A;align=center;verticalAlign=top;" vertex="1" parent="1">
          <mxGeometry y="150" width="220" height="210" as="geometry" />
        </mxCell>
        <mxCell id="fa4SZypfqjcJdwJo01G1-15" style="edgeStyle=orthogonalEdgeStyle;rounded=0;orthogonalLoop=1;jettySize=auto;html=1;" edge="1" parent="1" source="weblogic" target="prometheus">
          <mxGeometry relative="1" as="geometry" />
        </mxCell>
        <mxCell id="weblogic" value="WebLogic Server" style="rounded=1;fillColor=#98FB98" parent="1" vertex="1">
          <mxGeometry x="60" y="180" width="110" height="60" as="geometry" />
        </mxCell>
        <mxCell id="fa4SZypfqjcJdwJo01G1-16" style="edgeStyle=orthogonalEdgeStyle;rounded=0;orthogonalLoop=1;jettySize=auto;html=1;entryX=1;entryY=0.5;entryDx=0;entryDy=0;" edge="1" parent="1" source="oracle_db" target="prometheus">
          <mxGeometry relative="1" as="geometry" />
        </mxCell>
        <mxCell id="oracle_db" value="Oracle DB Monitoring" style="rounded=1;fillColor=#B0C4DE" parent="1" vertex="1">
          <mxGeometry x="20" y="270" width="180" height="60" as="geometry" />
        </mxCell>
        <mxCell id="fa4SZypfqjcJdwJo01G1-8" value="10.66.10.15" style="rounded=1;fillColor=#FFA07A;align=center;verticalAlign=top;" vertex="1" parent="1">
          <mxGeometry x="-280" y="150" width="220" height="210" as="geometry" />
        </mxCell>
        <mxCell id="fa4SZypfqjcJdwJo01G1-12" style="edgeStyle=orthogonalEdgeStyle;rounded=0;orthogonalLoop=1;jettySize=auto;html=1;entryX=0.5;entryY=0;entryDx=0;entryDy=0;" edge="1" parent="1" source="prometheus" target="grafana">
          <mxGeometry relative="1" as="geometry" />
        </mxCell>
        <mxCell id="prometheus" value="Prometheus" style="rounded=1;fillColor=#FFD700" parent="1" vertex="1">
          <mxGeometry x="-245" y="180" width="145" height="80" as="geometry" />
        </mxCell>
        <mxCell id="grafana" value="Grafana" style="rounded=1;fillColor=#FF69B4" parent="1" vertex="1">
          <mxGeometry x="-205" y="300" width="70" height="50" as="geometry" />
        </mxCell>
        <mxCell id="fa4SZypfqjcJdwJo01G1-14" style="edgeStyle=orthogonalEdgeStyle;rounded=0;orthogonalLoop=1;jettySize=auto;html=1;" edge="1" parent="1" source="fa4SZypfqjcJdwJo01G1-4" target="prometheus">
          <mxGeometry relative="1" as="geometry">
            <Array as="points">
              <mxPoint x="-40" y="255" />
              <mxPoint x="-40" y="220" />
            </Array>
          </mxGeometry>
        </mxCell>
      </root>
    </mxGraphModel>
  </diagram>
</mxfile>
